<?xml version="1.0" encoding="utf-8"?>
<!-- Generator: Adobe Illustrator 22.1.0, SVG Export Plug-In . SVG Version: 6.00 Build 0)  -->
<svg version="1.0" id="Capa_1" xmlns="http://www.w3.org/2000/svg" xmlns:xlink="http://www.w3.org/1999/xlink" x="0px" y="0px"
	 viewBox="0 0 876.7 342.2" style="enable-background:new 0 0 876.7 342.2;" xml:space="preserve">
<style type="text/css">
	.st0{fill:#FFD23E;}
	.st1{fill:#FCC732;}
	.st2{fill:#DB9600;}
	.st3{fill:#F9BC26;}
	.st4{fill:#FFFFFF;stroke:#211915;stroke-width:1.496;stroke-linejoin:round;stroke-miterlimit:10;}
	.st5{fill:#211915;}
	.st6{fill:#FFFFFF;stroke:#211915;stroke-width:1.2518;stroke-miterlimit:10;}
	.st7{fill:#FFFFFF;}
	.st8{fill:#211915;stroke:#211915;stroke-width:1.4567;stroke-miterlimit:10;}
	.st9{fill:#FFFFFF;stroke:#211915;stroke-width:1.1466;stroke-miterlimit:10;}
	.st10{fill:#FFFFFF;stroke:#211915;stroke-width:1.2243;stroke-linejoin:round;stroke-miterlimit:10;}
	.st11{fill:none;stroke:#211915;stroke-width:1.2811;stroke-miterlimit:10;}
	.st12{fill:#211915;stroke:#211915;stroke-width:0.629;stroke-miterlimit:10;}
	.st13{fill:none;}
	.st14{fill:none;stroke:#4A72B2;stroke-width:0.8504;stroke-miterlimit:10;}
	.st15{fill:#4A72B2;}
	.st16{fill:#627B7C;}
	.st17{fill:#5D7477;}
	.st18{fill:#4F6468;}
	.st19{fill:#211915;stroke:#FFFFFF;stroke-width:0.259;stroke-miterlimit:10;}
	.st20{enable-background:new    ;}
</style>
<g>
	<path class="st0" d="M378.8,135.9c0,0,7.5-20.9,89.7-17.1c0,0,87.8,7.9,78,19.2l-6.4,32.9l-0.7,16.7l4,3.9l-0.3,13.2L538,241
		c0,0-22-16.2-78.7-16.2c0,0-57.6-2.9-74.3,12.5L378.8,135.9z"/>
	<path class="st1" d="M364.4,322.5l-0.7-3.1L363,261c0-2.1,0.3-4.1,1-6c3.9-10.5,21.3-40.9,91.3-42.3c0.3,0,0.6,0,1,0
		c4.8-0.4,51.6-3.4,81.3,24.5c11.4,10.7,17.3,19.5,16.8,35l-2,50.3"/>
	<path class="st2" d="M546.5,134.2c0,0,2.5,2.9-37.6,5c0,0-5,7.1-6.7,8.3l-7.9,103.9l7.1,6.7c0,0,35.5-9.2,38-15.9l1.7-2.9l3.3-43.4
		c0,0,2.5-4.6-5-8.3c0,0,5.8,5.4,2.1,8.8c0,0-2.1,4.2-9.6,3.8l0.8-33.8c0,0,4.2-3.3,4.2,1.7l0.8,3.8c0,0,7.5-1.3,7.9-4.6l0.8-3.8
		C546.5,163.4,553.2,144.6,546.5,134.2z"/>
	<path class="st2" d="M395.1,245.2l4.6-3.8l0.8-99.7l-6.3,0.4H390v-4.2l-6.7-5.6c-0.4-0.4-0.9-0.8-1.4-0.2l-1.8,1.7l-1.3,1.9
		c0,0-0.1,0.1-0.1,0.2l2.5,101.3C381.3,237.2,383.8,242.7,395.1,245.2z"/>
	<path class="st3" d="M443.2,208.7c0,0,0.9,6.9-2.8,11.3c0,0,20.5,10.2,44.4,0c0,0-3.1-5-2.2-11.3"/>
	<ellipse class="st2" cx="463" cy="208.6" rx="19.7" ry="4.5"/>
	<g>
		<g>
			<polygon class="st4" points="448.2,207.2 462.6,211.5 478,208.5 477.9,197.5 462.8,200.6 448.4,197.5 			"/>
			<polyline class="st4" points="477.9,197.5 463,194.8 448.4,197.5 			"/>
		</g>
		<g>
			<path class="st5" d="M451.6,159.3c0,0,0.2,3.1,11.1,3.2c0,0,10.2,0.1,11-3.4v6.4h-22.1V159.3z"/>
			<path class="st5" d="M451.6,165.2v0.8c0,0,2.7,2.9,11.1,2.9c0,0,7.8,0.1,11-3v-0.8L451.6,165.2z"/>
		</g>
		<ellipse class="st6" cx="462.6" cy="159.1" rx="10.4" ry="3.3"/>
		<path class="st7" d="M451.7,156.7"/>
		<ellipse class="st8" cx="462.8" cy="166.4" rx="12.2" ry="3.9"/>
		<path class="st7" d="M452.8,156.5v2.9c0,0,2.4,2.6,9.9,2.6c0,0,7,0.1,9.8-2.7v-2.9L452.8,156.5z"/>
		
			<ellipse transform="matrix(2.982963e-03 -1 1 2.982963e-03 304.8047 618.6873)" class="st9" cx="462.7" cy="156.5" rx="3.1" ry="9.3"/>
		<ellipse class="st8" cx="463" cy="196.2" rx="12.2" ry="3.9"/>
		<path class="st10" d="M450.6,167.5c0,0,14.1,3.6,24.4,0l0.2,30c0,0-12.1,6.2-24.4-0.1L450.6,167.5z"/>
		<path class="st11" d="M450.8,180.8c0,0,11.8,8,24.3,0"/>
		
			<ellipse transform="matrix(2.982963e-03 -1 1 2.982963e-03 303.2677 620.1499)" class="st12" cx="462.6" cy="158" rx="1.7" ry="5.1"/>
	</g>
</g>
<g>
	<line class="st13" x1="515.4" y1="99.8" x2="466.7" y2="155.2"/>
	<g>
		<line class="st14" x1="515.4" y1="99.8" x2="470" y2="151.3"/>
		<g>
			<polygon class="st15" points="469.3,147.5 470.7,150.6 474,151.6 466.7,155.2 			"/>
		</g>
	</g>
</g>
<g>
	<line class="st13" x1="335" y1="116.8" x2="449.3" y2="162.7"/>
	<g>
		<line class="st14" x1="335" y1="116.8" x2="444.6" y2="160.8"/>
		<g>
			<polygon class="st15" points="441.2,162.8 443.6,160.4 443.5,157 449.3,162.7 			"/>
		</g>
	</g>
</g>
<g>
	<line class="st13" x1="617" y1="152.2" x2="543.7" y2="181.8"/>
	<g>
		<line class="st14" x1="617" y1="152.2" x2="548.4" y2="179.9"/>
		<g>
			<polygon class="st15" points="549.4,176.1 549.4,179.5 551.8,181.9 543.7,181.8 			"/>
		</g>
	</g>
</g>
<g>
	<line class="st13" x1="302" y1="187.2" x2="461.3" y2="191.7"/>
	<g>
		<line class="st14" x1="302" y1="187.2" x2="456.2" y2="191.6"/>
		<g>
			<polygon class="st15" points="453.7,194.6 455.2,191.5 453.9,188.3 461.3,191.7 			"/>
		</g>
	</g>
</g>
<path class="st8" d="M391.7,96.6c0,0-12.5,7.1,0.1,14.1c0,0,15.7,9.5,33.8-0.2c0,0,10.1-6.2-1.9-13.6L391.7,96.6z"/>
<path class="st16" d="M423.3,87.2l3.9-0.2c0,0,0.7-0.8,1.8-0.8c1,0,1.4,0.4,1.8,0.4c0.3,0,3.6-0.7,3.6-0.7c0.9,0.2,3.2-0.5,3.5-0.5
	s1.7,0,2.3-0.2s3-0.2,2.5-4c0,0,0.2-3.1-2.5-3.2l-2.7-0.1l-3.6,0.1l-0.8,0.5l-3.2-0.3l-0.2,0.8l-1.7,0.2l-0.8-4L424,78L423.3,87.2z"
	/>
<path class="st17" d="M389.1,76.1l2.1,19.1l0.5,1.3c0,0,2.2,5.3,16.9,5.9c0,0,13.1,0.1,16.5-6.2l3.1-19.4l-2.4-2.7l-27-1.8
	L389.1,76.1z"/>
<path class="st18" d="M432.5,68.3c0,0,0.8-6-8.6-8l-8.9-6.7c0,0-6.9,3.7-10.3-1.2l-11.1,7.9c0,0-10.6,1.9-8.5,9c0,0,1.3,5.8,5.5,7.5
	c0,0,20,7.3,37.7,0.1C428.2,76.9,431.9,74.4,432.5,68.3z"/>
<path class="st8" d="M412.5,47.6c0,0-5.9-2.6-7.4,4c0,0,0.4,6.2,8.8,2.9l2.8-1.3c0,0,3.1,2.5,3.9,2.1c0,0,1.2-0.6-1.9-2.9
	c0,0,3.1-2.9,3.5-6.4c0,0,0.1-2.7-2.1-1.7c0,0-1.1,3.4-5.4,3.8L412.5,47.6z"/>
<circle class="st19" cx="409.5" cy="52.4" r="1.4"/>
<g>
	<line class="st13" x1="299.1" y1="45.8" x2="375.2" y2="67.2"/>
	<g>
		<line class="st14" x1="299.1" y1="45.8" x2="370.3" y2="65.9"/>
		<g>
			<polygon class="st15" points="367.2,68.2 369.3,65.6 368.9,62.2 375.2,67.2 			"/>
		</g>
	</g>
</g>
<g class="st20">
	<path class="st15" d="M625,146.6l-1.4-3.2h-6.5l-1.4,3.2h-1.9l5.7-12.8h1.6l5.7,12.8H625z M617.7,141.9h5.2l-2.6-6.1L617.7,141.9z"
		/>
	<path class="st15" d="M627.6,145.5l0.5-1.3c0.9,0.7,2,1.1,3.3,1.1c0.6,0,1.1-0.1,1.4-0.3c0.3-0.2,0.5-0.5,0.5-0.9
		c0-0.3-0.1-0.6-0.3-0.8s-0.6-0.3-1.1-0.5l-1.5-0.4c-0.8-0.2-1.4-0.5-1.8-0.9s-0.6-1-0.6-1.6c0-0.8,0.3-1.5,1-2s1.5-0.8,2.6-0.8
		c0.6,0,1.3,0.1,1.8,0.3c0.6,0.2,1.1,0.5,1.5,0.9l-0.6,1.3c-0.9-0.7-1.8-1-2.8-1c-0.6,0-1,0.1-1.4,0.3s-0.5,0.5-0.5,0.9
		c0,0.3,0.1,0.6,0.3,0.8s0.5,0.3,1,0.5l1.5,0.4c0.9,0.2,1.5,0.5,1.9,0.9s0.6,1,0.6,1.6c0,0.8-0.3,1.5-1,1.9
		c-0.7,0.5-1.5,0.7-2.7,0.7C629.8,146.7,628.5,146.3,627.6,145.5z"/>
	<path class="st15" d="M645.5,137.5v9.1h-1.8V145c-0.3,0.5-0.7,1-1.2,1.2c-0.5,0.3-1.1,0.4-1.8,0.4c-0.8,0-1.5-0.2-2.1-0.6
		c-0.6-0.4-1.1-0.9-1.4-1.6s-0.5-1.5-0.5-2.5c0-0.9,0.2-1.8,0.5-2.5s0.8-1.3,1.4-1.7c0.6-0.4,1.3-0.6,2.1-0.6c0.7,0,1.3,0.1,1.8,0.4
		c0.5,0.3,0.9,0.7,1.2,1.3v-1.5h1.8V137.5z M643,144.4c0.5-0.6,0.7-1.4,0.7-2.4s-0.2-1.8-0.7-2.4c-0.5-0.6-1.1-0.8-1.9-0.8
		c-0.8,0-1.5,0.3-1.9,0.9s-0.7,1.4-0.7,2.4s0.2,1.8,0.7,2.4c0.5,0.6,1.1,0.8,1.9,0.8C641.9,145.2,642.5,145,643,144.4z"/>
	<path class="st15" d="M647.6,145.5l0.5-1.3c0.9,0.7,2,1.1,3.3,1.1c0.6,0,1.1-0.1,1.4-0.3c0.3-0.2,0.5-0.5,0.5-0.9
		c0-0.3-0.1-0.6-0.3-0.8s-0.6-0.3-1.1-0.5l-1.5-0.4c-0.8-0.2-1.4-0.5-1.8-0.9s-0.6-1-0.6-1.6c0-0.8,0.3-1.5,1-2s1.5-0.8,2.6-0.8
		c0.6,0,1.3,0.1,1.8,0.3c0.6,0.2,1.1,0.5,1.5,0.9l-0.6,1.3c-0.9-0.7-1.8-1-2.8-1c-0.6,0-1,0.1-1.4,0.3s-0.5,0.5-0.5,0.9
		c0,0.3,0.1,0.6,0.3,0.8s0.5,0.3,1,0.5l1.5,0.4c0.9,0.2,1.5,0.5,1.9,0.9s0.6,1,0.6,1.6c0,0.8-0.3,1.5-1,1.9
		c-0.7,0.5-1.5,0.7-2.7,0.7C649.7,146.7,648.5,146.3,647.6,145.5z"/>
</g>
<g class="st20">
	<path class="st15" d="M263.6,43.2h-2L260,39c-0.2-0.5-0.4-0.8-0.7-0.9c-0.3-0.2-0.8-0.3-1.3-0.3h-2.8v5.5h-1.8V30.4h5.3
		c1.4,0,2.5,0.3,3.2,0.9s1.1,1.5,1.1,2.7c0,0.8-0.2,1.6-0.7,2.1c-0.4,0.6-1.1,1-1.9,1.2c0.7,0.1,1.3,0.7,1.6,1.6L263.6,43.2z
		 M258.4,36.3c0.9,0,1.6-0.2,2.1-0.5c0.5-0.4,0.7-0.9,0.7-1.6c0-0.7-0.2-1.3-0.7-1.6c-0.4-0.4-1.1-0.5-2.1-0.5h-3.2v4.4h3.2V36.3z"
		/>
	<path class="st15" d="M273.4,38.7H267c0.1,2.1,1,3.2,2.9,3.2c1,0,2-0.3,2.9-1l0.6,1.3c-0.4,0.4-0.9,0.6-1.6,0.9
		c-0.6,0.2-1.3,0.3-1.9,0.3c-1.5,0-2.6-0.4-3.4-1.3c-0.8-0.8-1.2-2-1.2-3.4c0-0.9,0.2-1.7,0.5-2.5c0.4-0.7,0.9-1.3,1.5-1.7
		c0.7-0.4,1.4-0.6,2.2-0.6c1.2,0,2.2,0.4,2.9,1.2s1.1,1.9,1.1,3.3v0.3H273.4z M267.9,35.9c-0.4,0.4-0.7,1-0.8,1.7h4.8
		c-0.1-0.8-0.3-1.4-0.7-1.8s-0.9-0.6-1.6-0.6C268.8,35.3,268.3,35.5,267.9,35.9z"/>
	<path class="st15" d="M283.9,34.2v8.9c0,1.4-0.4,2.4-1.1,3.1s-1.8,1.1-3.2,1.1c-1.4,0-2.6-0.3-3.6-0.9l0.3-1.4
		c0.6,0.3,1.1,0.5,1.6,0.7c0.5,0.1,1.1,0.2,1.7,0.2c1.7,0,2.5-0.9,2.5-2.6v-2c-0.3,0.5-0.7,0.9-1.2,1.3c-0.5,0.3-1.1,0.5-1.8,0.5
		c-0.8,0-1.5-0.2-2.1-0.6c-0.6-0.4-1.1-0.9-1.4-1.6c-0.3-0.7-0.5-1.5-0.5-2.4s0.2-1.7,0.5-2.4s0.8-1.2,1.4-1.6
		c0.6-0.4,1.3-0.6,2.1-0.6c0.7,0,1.3,0.1,1.8,0.4c0.5,0.3,0.9,0.7,1.2,1.3v-1.5h1.8L283.9,34.2L283.9,34.2z M281.4,40.7
		c0.5-0.5,0.7-1.3,0.7-2.2s-0.2-1.7-0.7-2.2s-1.1-0.8-1.9-0.8s-1.5,0.3-1.9,0.8s-0.7,1.3-0.7,2.2s0.2,1.7,0.7,2.2s1.1,0.8,1.9,0.8
		S280.9,41.2,281.4,40.7z"/>
	<path class="st15" d="M294.4,34.2v9.1h-1.8v-1.5c-0.3,0.5-0.7,0.9-1.2,1.2s-1.1,0.4-1.7,0.4c-2.2,0-3.3-1.2-3.3-3.6v-5.6h1.8v5.5
		c0,0.7,0.2,1.3,0.5,1.6c0.3,0.4,0.8,0.5,1.4,0.5c0.7,0,1.3-0.2,1.8-0.7c0.4-0.5,0.7-1.1,0.7-1.9v-5.1L294.4,34.2L294.4,34.2z"/>
	<path class="st15" d="M297.1,43.2V30h1.8v13.2H297.1z"/>
	<path class="st15" d="M309.9,34.2v9.1h-1.8v-1.5c-0.3,0.5-0.7,1-1.2,1.2s-1.1,0.4-1.8,0.4c-0.8,0-1.5-0.2-2.1-0.6
		c-0.6-0.4-1.1-0.9-1.4-1.6s-0.5-1.5-0.5-2.5c0-0.9,0.2-1.8,0.5-2.5s0.8-1.3,1.4-1.7s1.3-0.6,2.1-0.6c0.7,0,1.3,0.1,1.8,0.4
		c0.5,0.3,0.9,0.7,1.2,1.3v-1.5L309.9,34.2L309.9,34.2z M307.4,41.1c0.5-0.6,0.7-1.4,0.7-2.4s-0.2-1.8-0.7-2.4
		c-0.4-0.6-1.1-0.8-1.9-0.8s-1.5,0.3-1.9,0.9s-0.7,1.4-0.7,2.4s0.2,1.8,0.7,2.4c0.5,0.6,1.1,0.8,1.9,0.8
		C306.3,41.9,306.9,41.6,307.4,41.1z"/>
	<path class="st15" d="M320.8,30v13.2H319v-1.5c-0.3,0.5-0.7,1-1.2,1.2s-1.1,0.4-1.8,0.4c-0.8,0-1.5-0.2-2.1-0.6
		c-0.6-0.4-1.1-1-1.4-1.7s-0.5-1.5-0.5-2.5c0-0.9,0.2-1.8,0.5-2.5s0.8-1.3,1.4-1.6s1.3-0.6,2.1-0.6c0.7,0,1.3,0.1,1.8,0.4
		c0.5,0.3,0.9,0.7,1.2,1.2V30H320.8z M318.3,41.1c0.5-0.6,0.7-1.4,0.7-2.4s-0.2-1.8-0.7-2.4c-0.4-0.6-1.1-0.9-1.9-0.9
		s-1.5,0.3-1.9,0.8c-0.5,0.6-0.7,1.4-0.7,2.4s0.2,1.8,0.7,2.4s1.1,0.9,1.9,0.9C317.3,41.9,317.9,41.6,318.3,41.1z"/>
	<path class="st15" d="M325.1,42.8c-0.7-0.4-1.2-0.9-1.6-1.6s-0.5-1.5-0.5-2.5c0-0.9,0.2-1.8,0.5-2.5c0.4-0.7,0.9-1.3,1.6-1.6
		c0.7-0.4,1.5-0.6,2.3-0.6c0.9,0,1.6,0.2,2.3,0.6c0.7,0.4,1.2,0.9,1.6,1.6c0.4,0.7,0.5,1.5,0.5,2.5c0,0.9-0.2,1.8-0.5,2.5
		c-0.4,0.7-0.9,1.3-1.6,1.6c-0.7,0.4-1.4,0.6-2.3,0.6C326.5,43.4,325.7,43.2,325.1,42.8z M329.3,41.1c0.4-0.6,0.7-1.4,0.7-2.4
		s-0.2-1.8-0.7-2.4c-0.5-0.6-1.1-0.8-1.9-0.8s-1.5,0.3-1.9,0.8c-0.5,0.6-0.7,1.4-0.7,2.4c0,1.1,0.2,1.9,0.7,2.4
		c0.4,0.6,1.1,0.8,1.9,0.8C328.2,41.9,328.9,41.7,329.3,41.1z"/>
	<path class="st15" d="M339.3,34.1v1.7c-0.3-0.1-0.7-0.2-1.1-0.2c-0.8,0-1.4,0.2-1.9,0.7c-0.4,0.5-0.6,1.1-0.6,1.9v5.1h-1.8v-6.5
		c0-0.9,0-1.8-0.1-2.6h1.7l0.2,1.6c0.2-0.6,0.6-1.1,1.1-1.4c0.5-0.3,1.1-0.5,1.7-0.5C338.7,34,339,34,339.3,34.1z"/>
</g>
<g class="st20">
	<path class="st15" d="M295.9,105.8v6c-0.5,0.3-1.2,0.5-2,0.7s-1.7,0.2-2.5,0.2c-1.3,0-2.4-0.3-3.4-0.8c-0.9-0.5-1.7-1.3-2.2-2.3
		s-0.7-2.2-0.7-3.5s0.2-2.5,0.7-3.5s1.2-1.7,2.1-2.3c0.9-0.5,2-0.8,3.3-0.8c0.9,0,1.7,0.1,2.5,0.4s1.4,0.7,2,1.2l-0.7,1.4
		c-0.6-0.5-1.2-0.9-1.8-1.1c-0.6-0.2-1.2-0.3-2-0.3c-1.4,0-2.5,0.4-3.2,1.3s-1.1,2.1-1.1,3.7c0,1.7,0.4,2.9,1.1,3.8s1.8,1.3,3.3,1.3
		c1,0,1.9-0.1,2.8-0.4v-3.6h-3v-1.4L295.9,105.8L295.9,105.8z"/>
	<path class="st15" d="M300.1,112.1c-0.7-0.4-1.2-0.9-1.6-1.6S298,109,298,108c0-0.9,0.2-1.8,0.5-2.5c0.4-0.7,0.9-1.3,1.6-1.6
		c0.7-0.4,1.5-0.6,2.3-0.6c0.9,0,1.6,0.2,2.3,0.6c0.7,0.4,1.2,0.9,1.6,1.6s0.5,1.5,0.5,2.5c0,0.9-0.2,1.8-0.5,2.5
		c-0.4,0.7-0.9,1.3-1.6,1.6c-0.7,0.4-1.4,0.6-2.3,0.6C301.6,112.7,300.8,112.5,300.1,112.1z M304.4,110.4c0.4-0.6,0.7-1.4,0.7-2.4
		s-0.2-1.8-0.7-2.4s-1.1-0.8-1.9-0.8s-1.5,0.3-1.9,0.8c-0.5,0.6-0.7,1.4-0.7,2.4c0,1.1,0.2,1.9,0.7,2.4c0.4,0.6,1.1,0.8,1.9,0.8
		C303.3,111.2,303.9,111,304.4,110.4z"/>
	<path class="st15" d="M322.4,106.9v5.7h-1.8V107c0-0.8-0.1-1.4-0.4-1.7c-0.3-0.4-0.7-0.5-1.3-0.5c-0.7,0-1.2,0.2-1.6,0.7
		s-0.6,1.1-0.6,2v5.1h-1.8V107c0-0.8-0.1-1.4-0.4-1.7c-0.3-0.4-0.7-0.5-1.3-0.5c-0.7,0-1.2,0.2-1.7,0.7c-0.4,0.5-0.6,1.1-0.6,2v5.1
		H309V106c0-0.9,0-1.8-0.1-2.6h1.7l0.2,1.5c0.3-0.6,0.6-1,1.1-1.3s1.1-0.5,1.7-0.5c1.4,0,2.3,0.6,2.8,1.7c0.3-0.5,0.7-1,1.2-1.3
		s1.1-0.5,1.8-0.5C321.4,103.3,322.4,104.5,322.4,106.9z"/>
	<path class="st15" d="M333.3,103.5v9.1h-1.8V111c-0.3,0.5-0.7,1-1.2,1.2s-1.1,0.4-1.8,0.4c-0.8,0-1.5-0.2-2.1-0.6s-1.1-0.9-1.4-1.6
		s-0.5-1.5-0.5-2.5c0-0.9,0.2-1.8,0.5-2.5s0.8-1.3,1.4-1.7c0.6-0.4,1.3-0.6,2.1-0.6c0.7,0,1.3,0.1,1.8,0.4s0.9,0.7,1.2,1.3v-1.5h1.8
		V103.5z M330.8,110.4c0.5-0.6,0.7-1.4,0.7-2.4s-0.2-1.8-0.7-2.4c-0.4-0.6-1.1-0.8-1.9-0.8s-1.5,0.3-1.9,0.9s-0.7,1.4-0.7,2.4
		s0.2,1.8,0.7,2.4s1.1,0.8,1.9,0.8C329.7,111.2,330.4,111,330.8,110.4z"/>
</g>
<g class="st20">
	<path class="st15" d="M521.2,77.1h1.9l-5.7,12.8h-1.6l-5.7-12.8h1.9l4.5,10.5L521.2,77.1z"/>
	<path class="st15" d="M531.7,80.8v9.1h-1.8v-1.5c-0.3,0.5-0.7,1-1.2,1.2c-0.5,0.3-1.1,0.4-1.8,0.4c-0.8,0-1.5-0.2-2.1-0.6
		s-1.1-0.9-1.4-1.6s-0.5-1.5-0.5-2.5c0-0.9,0.2-1.8,0.5-2.5s0.8-1.3,1.4-1.7c0.6-0.4,1.3-0.6,2.1-0.6c0.7,0,1.3,0.1,1.8,0.4
		s0.9,0.7,1.2,1.3v-1.5L531.7,80.8L531.7,80.8z M529.2,87.7c0.5-0.6,0.7-1.4,0.7-2.4s-0.2-1.8-0.7-2.4c-0.4-0.6-1.1-0.8-1.9-0.8
		c-0.8,0-1.5,0.3-1.9,0.9s-0.7,1.4-0.7,2.4s0.2,1.8,0.7,2.4s1.1,0.8,1.9,0.8C528.1,88.6,528.7,88.3,529.2,87.7z M528.1,79.7h-1.2
		l1.8-3.7h2L528.1,79.7z"/>
	<path class="st15" d="M534.3,89.9V76.6h1.8v13.2h-1.8V89.9z"/>
	<path class="st15" d="M545.2,80.8h1.8l-3.9,9.1h-1.6l-3.9-9.1h1.9l2.8,7L545.2,80.8z"/>
	<path class="st15" d="M556.3,80.8v9.1h-1.8v-1.5c-0.3,0.5-0.7,0.9-1.2,1.2c-0.5,0.3-1.1,0.4-1.7,0.4c-2.2,0-3.3-1.2-3.3-3.6v-5.6
		h1.8v5.5c0,0.7,0.2,1.3,0.5,1.6s0.8,0.5,1.4,0.5c0.7,0,1.3-0.2,1.8-0.7c0.4-0.5,0.7-1.1,0.7-1.9v-5.1L556.3,80.8L556.3,80.8z"/>
	<path class="st15" d="M559,89.9V76.6h1.8v13.2H559V89.9z"/>
	<path class="st15" d="M571.8,80.8v9.1H570v-1.5c-0.3,0.5-0.7,1-1.2,1.2c-0.5,0.3-1.1,0.4-1.8,0.4c-0.8,0-1.5-0.2-2.1-0.6
		s-1.1-0.9-1.4-1.6s-0.5-1.5-0.5-2.5c0-0.9,0.2-1.8,0.5-2.5s0.8-1.3,1.4-1.7c0.6-0.4,1.3-0.6,2.1-0.6c0.7,0,1.3,0.1,1.8,0.4
		s0.9,0.7,1.2,1.3v-1.5L571.8,80.8L571.8,80.8z M569.3,87.7c0.5-0.6,0.7-1.4,0.7-2.4s-0.2-1.8-0.7-2.4s-1.1-0.8-1.9-0.8
		c-0.8,0-1.5,0.3-1.9,0.9s-0.7,1.4-0.7,2.4s0.2,1.8,0.7,2.4s1.1,0.8,1.9,0.8S568.8,88.3,569.3,87.7z"/>
	<path class="st15" d="M587.5,76.6v13.2h-1.8v-1.5c-0.3,0.5-0.7,1-1.2,1.2c-0.5,0.3-1.1,0.4-1.8,0.4c-0.8,0-1.5-0.2-2.1-0.6
		s-1.1-1-1.4-1.7s-0.5-1.5-0.5-2.5c0-0.9,0.2-1.8,0.5-2.5s0.8-1.3,1.4-1.6c0.6-0.4,1.3-0.6,2.1-0.6c0.7,0,1.3,0.1,1.8,0.4
		s0.9,0.7,1.2,1.2v-5.6h1.8V76.6z M585,87.7c0.5-0.6,0.7-1.4,0.7-2.4s-0.2-1.8-0.7-2.4c-0.4-0.6-1.1-0.9-1.9-0.9
		c-0.8,0-1.5,0.3-1.9,0.8c-0.5,0.6-0.7,1.4-0.7,2.4s0.2,1.8,0.7,2.4s1.1,0.9,1.9,0.9C584,88.6,584.6,88.3,585,87.7z"/>
	<path class="st15" d="M597.9,85.4h-6.5c0.1,2.1,1,3.2,2.9,3.2c1,0,2-0.3,2.9-1l0.6,1.3c-0.4,0.4-0.9,0.6-1.6,0.9
		c-0.6,0.2-1.3,0.3-1.9,0.3c-1.5,0-2.6-0.4-3.4-1.3s-1.2-2-1.2-3.4c0-0.9,0.2-1.7,0.5-2.5c0.4-0.7,0.9-1.3,1.5-1.7
		c0.7-0.4,1.4-0.6,2.2-0.6c1.2,0,2.2,0.4,2.9,1.2s1.1,1.9,1.1,3.3V85.4z M592.3,82.6c-0.4,0.4-0.7,1-0.8,1.7h4.8
		c-0.1-0.8-0.3-1.4-0.7-1.8s-0.9-0.6-1.6-0.6C593.3,82,592.8,82.2,592.3,82.6z"/>
	<path class="st15" d="M604.2,88.9l0.5-1.3c0.9,0.7,2,1.1,3.3,1.1c0.6,0,1.1-0.1,1.4-0.3c0.3-0.2,0.5-0.5,0.5-0.9
		c0-0.3-0.1-0.6-0.3-0.8c-0.2-0.2-0.6-0.3-1.1-0.5l-1.5-0.4c-0.8-0.2-1.4-0.5-1.8-0.9s-0.6-1-0.6-1.6c0-0.8,0.3-1.5,1-2
		s1.5-0.8,2.6-0.8c0.6,0,1.3,0.1,1.8,0.3c0.6,0.2,1.1,0.5,1.5,0.9l-0.6,1.3c-0.9-0.7-1.8-1-2.8-1c-0.6,0-1,0.1-1.4,0.3
		s-0.5,0.5-0.5,0.9c0,0.3,0.1,0.6,0.3,0.8c0.2,0.2,0.5,0.3,1,0.5l1.5,0.4c0.9,0.2,1.5,0.5,1.9,0.9s0.6,1,0.6,1.6
		c0,0.8-0.3,1.5-1,1.9c-0.7,0.5-1.5,0.7-2.7,0.7C606.4,90,605.2,89.6,604.2,88.9z"/>
	<path class="st15" d="M621.5,85.4H615c0.1,2.1,1,3.2,2.9,3.2c1,0,2-0.3,2.9-1l0.6,1.3c-0.4,0.4-0.9,0.6-1.6,0.9
		c-0.6,0.2-1.3,0.3-1.9,0.3c-1.5,0-2.6-0.4-3.4-1.3s-1.2-2-1.2-3.4c0-0.9,0.2-1.7,0.5-2.5c0.4-0.7,0.9-1.3,1.5-1.7
		c0.7-0.4,1.4-0.6,2.2-0.6c1.2,0,2.2,0.4,2.9,1.2s1.1,1.9,1.1,3.3V85.4z M615.9,82.6c-0.4,0.4-0.7,1-0.8,1.7h4.8
		c-0.1-0.8-0.3-1.4-0.7-1.8s-0.9-0.6-1.6-0.6C616.9,82,616.4,82.2,615.9,82.6z"/>
	<path class="st15" d="M632,80.8v8.9c0,1.4-0.4,2.4-1.1,3.1c-0.7,0.7-1.8,1.1-3.2,1.1s-2.6-0.3-3.6-0.9l0.3-1.4
		c0.6,0.3,1.1,0.5,1.6,0.7c0.5,0.1,1.1,0.2,1.7,0.2c1.7,0,2.5-0.9,2.5-2.6v-2c-0.3,0.5-0.7,0.9-1.2,1.3c-0.5,0.3-1.1,0.5-1.8,0.5
		c-0.8,0-1.5-0.2-2.1-0.6s-1.1-0.9-1.4-1.6c-0.3-0.7-0.5-1.5-0.5-2.4s0.2-1.7,0.5-2.4c0.3-0.7,0.8-1.2,1.4-1.6s1.3-0.6,2.1-0.6
		c0.7,0,1.3,0.1,1.8,0.4s0.9,0.7,1.2,1.3v-1.5L632,80.8L632,80.8z M629.5,87.4c0.5-0.5,0.7-1.3,0.7-2.2c0-0.9-0.2-1.7-0.7-2.2
		s-1.1-0.8-1.9-0.8c-0.8,0-1.5,0.3-1.9,0.8c-0.5,0.5-0.7,1.3-0.7,2.2c0,0.9,0.2,1.7,0.7,2.2s1.1,0.8,1.9,0.8
		C628.4,88.2,629,87.9,629.5,87.4z"/>
	<path class="st15" d="M642.5,80.8v9.1h-1.8v-1.5c-0.3,0.5-0.7,0.9-1.2,1.2s-1.1,0.4-1.7,0.4c-2.2,0-3.3-1.2-3.3-3.6v-5.6h1.8v5.5
		c0,0.7,0.2,1.3,0.5,1.6c0.3,0.4,0.8,0.5,1.4,0.5c0.7,0,1.3-0.2,1.8-0.7s0.7-1.1,0.7-1.9v-5.1L642.5,80.8L642.5,80.8z"/>
	<path class="st15" d="M650.6,80.7v1.7c-0.3-0.1-0.7-0.2-1.1-0.2c-0.8,0-1.4,0.2-1.9,0.7c-0.4,0.5-0.6,1.1-0.6,1.9v5.1h-1.8v-6.5
		c0-0.9,0-1.8-0.1-2.6h1.7l0.2,1.6c0.2-0.6,0.6-1.1,1.1-1.4s1.1-0.5,1.7-0.5C650,80.6,650.3,80.6,650.6,80.7z"/>
	<path class="st15" d="M651.8,76.9h2.1v1.9h-2.1V76.9z M652,89.9v-9.1h1.8v9.1H652z"/>
	<path class="st15" d="M664.7,76.6v13.2h-1.8v-1.5c-0.3,0.5-0.7,1-1.2,1.2c-0.5,0.3-1.1,0.4-1.8,0.4c-0.8,0-1.5-0.2-2.1-0.6
		s-1.1-1-1.4-1.7c-0.3-0.7-0.5-1.5-0.5-2.5c0-0.9,0.2-1.8,0.5-2.5s0.8-1.3,1.4-1.6c0.6-0.4,1.3-0.6,2.1-0.6c0.7,0,1.3,0.1,1.8,0.4
		s0.9,0.7,1.2,1.2v-5.6h1.8V76.6z M662.2,87.7c0.5-0.6,0.7-1.4,0.7-2.4s-0.2-1.8-0.7-2.4s-1.1-0.9-1.9-0.9c-0.8,0-1.5,0.3-1.9,0.8
		c-0.5,0.6-0.7,1.4-0.7,2.4s0.2,1.8,0.7,2.4s1.1,0.9,1.9,0.9C661.2,88.6,661.8,88.3,662.2,87.7z"/>
	<path class="st15" d="M675.7,80.8v9.1h-1.8v-1.5c-0.3,0.5-0.7,1-1.2,1.2c-0.5,0.3-1.1,0.4-1.8,0.4c-0.8,0-1.5-0.2-2.1-0.6
		s-1.1-0.9-1.4-1.6s-0.5-1.5-0.5-2.5c0-0.9,0.2-1.8,0.5-2.5s0.8-1.3,1.4-1.7c0.6-0.4,1.3-0.6,2.1-0.6c0.7,0,1.3,0.1,1.8,0.4
		s0.9,0.7,1.2,1.3v-1.5L675.7,80.8L675.7,80.8z M673.2,87.7c0.5-0.6,0.7-1.4,0.7-2.4s-0.2-1.8-0.7-2.4c-0.4-0.6-1.1-0.8-1.9-0.8
		c-0.8,0-1.5,0.3-1.9,0.9s-0.7,1.4-0.7,2.4s0.2,1.8,0.7,2.4s1.1,0.8,1.9,0.8C672.1,88.6,672.8,88.3,673.2,87.7z"/>
	<path class="st15" d="M686.6,76.6v13.2h-1.8v-1.5c-0.3,0.5-0.7,1-1.2,1.2s-1.1,0.4-1.8,0.4c-0.8,0-1.5-0.2-2.1-0.6s-1.1-1-1.4-1.7
		s-0.5-1.5-0.5-2.5c0-0.9,0.2-1.8,0.5-2.5s0.8-1.3,1.4-1.6c0.6-0.4,1.3-0.6,2.1-0.6c0.7,0,1.3,0.1,1.8,0.4s0.9,0.7,1.2,1.2v-5.6h1.8
		V76.6z M684.2,87.7c0.5-0.6,0.7-1.4,0.7-2.4s-0.2-1.8-0.7-2.4c-0.4-0.6-1.1-0.9-1.9-0.9c-0.8,0-1.5,0.3-1.9,0.8
		c-0.5,0.6-0.7,1.4-0.7,2.4s0.2,1.8,0.7,2.4s1.1,0.9,1.9,0.9C683.1,88.6,683.7,88.3,684.2,87.7z"/>
</g>
<g class="st20">
	<path class="st15" d="M147.7,175.4h1.9l-5.7,12.8h-1.6l-5.7-12.8h1.9l4.5,10.5L147.7,175.4z"/>
	<path class="st15" d="M158.2,179.2v9.1h-1.8v-1.5c-0.3,0.5-0.7,1-1.2,1.2s-1.1,0.4-1.8,0.4c-0.8,0-1.5-0.2-2.1-0.6
		c-0.6-0.4-1.1-0.9-1.4-1.6s-0.5-1.5-0.5-2.5c0-0.9,0.2-1.8,0.5-2.5s0.8-1.3,1.4-1.7c0.6-0.4,1.3-0.6,2.1-0.6c0.7,0,1.3,0.1,1.8,0.4
		c0.5,0.3,0.9,0.7,1.2,1.3v-1.5h1.8V179.2z M155.7,186.1c0.5-0.6,0.7-1.4,0.7-2.4s-0.2-1.8-0.7-2.4c-0.4-0.6-1.1-0.8-1.9-0.8
		c-0.8,0-1.5,0.3-1.9,0.9s-0.7,1.4-0.7,2.4s0.2,1.8,0.7,2.4c0.5,0.6,1.1,0.8,1.9,0.8C154.6,186.9,155.2,186.6,155.7,186.1z
		 M154.6,178h-1.2l1.8-3.7h2L154.6,178z"/>
	<path class="st15" d="M160.8,188.2V175h1.8v13.2H160.8z"/>
	<path class="st15" d="M171.7,179.2h1.8l-3.9,9.1H168l-3.9-9.1h1.9l2.8,7L171.7,179.2z"/>
	<path class="st15" d="M182.8,179.2v9.1H181v-1.5c-0.3,0.5-0.7,0.9-1.2,1.2s-1.1,0.4-1.7,0.4c-2.2,0-3.3-1.2-3.3-3.6v-5.6h1.8v5.5
		c0,0.7,0.2,1.3,0.5,1.6c0.3,0.4,0.8,0.5,1.4,0.5c0.7,0,1.3-0.2,1.8-0.7c0.4-0.5,0.7-1.1,0.7-1.9v-5.1h1.8V179.2z"/>
	<path class="st15" d="M185.5,188.2V175h1.8v13.2H185.5z"/>
	<path class="st15" d="M198.3,179.2v9.1h-1.8v-1.5c-0.3,0.5-0.7,1-1.2,1.2s-1.1,0.4-1.8,0.4c-0.8,0-1.5-0.2-2.1-0.6
		c-0.6-0.4-1.1-0.9-1.4-1.6s-0.5-1.5-0.5-2.5c0-0.9,0.2-1.8,0.5-2.5s0.8-1.3,1.4-1.7c0.6-0.4,1.3-0.6,2.1-0.6c0.7,0,1.3,0.1,1.8,0.4
		c0.5,0.3,0.9,0.7,1.2,1.3v-1.5h1.8V179.2z M195.8,186.1c0.5-0.6,0.7-1.4,0.7-2.4s-0.2-1.8-0.7-2.4c-0.4-0.6-1.1-0.8-1.9-0.8
		c-0.8,0-1.5,0.3-1.9,0.9s-0.7,1.4-0.7,2.4s0.2,1.8,0.7,2.4c0.5,0.6,1.1,0.8,1.9,0.8C194.7,186.9,195.3,186.6,195.8,186.1z"/>
	<path class="st15" d="M214,175v13.2h-1.8v-1.5c-0.3,0.5-0.7,1-1.2,1.2s-1.1,0.4-1.8,0.4c-0.8,0-1.5-0.2-2.1-0.6
		c-0.6-0.4-1.1-1-1.4-1.7c-0.3-0.7-0.5-1.5-0.5-2.5c0-0.9,0.2-1.8,0.5-2.5s0.8-1.3,1.4-1.6s1.3-0.6,2.1-0.6c0.7,0,1.3,0.1,1.8,0.4
		c0.5,0.3,0.9,0.7,1.2,1.2V175H214z M211.5,186.1c0.5-0.6,0.7-1.4,0.7-2.4s-0.2-1.8-0.7-2.4c-0.4-0.6-1.1-0.9-1.9-0.9
		c-0.8,0-1.5,0.3-1.9,0.8c-0.5,0.6-0.7,1.4-0.7,2.4s0.2,1.8,0.7,2.4s1.1,0.9,1.9,0.9C210.5,186.9,211.1,186.6,211.5,186.1z"/>
	<path class="st15" d="M224.4,183.7h-6.5c0.1,2.1,1,3.2,2.9,3.2c1,0,2-0.3,2.9-1l0.6,1.3c-0.4,0.4-0.9,0.6-1.6,0.9
		c-0.6,0.2-1.3,0.3-1.9,0.3c-1.5,0-2.6-0.4-3.4-1.3c-0.8-0.8-1.2-2-1.2-3.4c0-0.9,0.2-1.7,0.5-2.5c0.4-0.7,0.9-1.3,1.5-1.7
		c0.7-0.4,1.4-0.6,2.2-0.6c1.2,0,2.2,0.4,2.9,1.2s1.1,1.9,1.1,3.3V183.7z M218.8,180.9c-0.4,0.4-0.7,1-0.8,1.7h4.8
		c-0.1-0.8-0.3-1.4-0.7-1.8s-0.9-0.6-1.6-0.6C219.8,180.3,219.3,180.5,218.8,180.9z"/>
	<path class="st15" d="M226.5,188.2V175h1.8v13.2H226.5z"/>
	<path class="st15" d="M237.3,187.8c-0.7-0.4-1.2-0.9-1.6-1.6s-0.5-1.5-0.5-2.5c0-0.9,0.2-1.8,0.6-2.5c0.4-0.7,0.9-1.3,1.6-1.7
		c0.7-0.4,1.5-0.6,2.4-0.6c0.6,0,1.2,0.1,1.8,0.3s1.1,0.5,1.4,0.9l-0.6,1.3c-0.9-0.7-1.7-1-2.6-1c-0.9,0-1.6,0.3-2.1,0.9
		c-0.5,0.6-0.7,1.4-0.7,2.4s0.2,1.8,0.7,2.4s1.2,0.8,2.1,0.8c0.9,0,1.7-0.3,2.6-1l0.6,1.3c-0.4,0.4-0.9,0.6-1.5,0.8
		s-1.2,0.3-1.9,0.3C238.8,188.4,238,188.2,237.3,187.8z"/>
	<path class="st15" d="M244.6,175.2h2.1v1.9h-2.1V175.2z M244.8,188.2v-9.1h1.8v9.1H244.8z"/>
	<path class="st15" d="M249.2,188.2V175h1.8v13.2H249.2z"/>
	<path class="st15" d="M253.5,175.2h2.1v1.9h-2.1V175.2z M253.7,188.2v-9.1h1.8v9.1H253.7z"/>
	<path class="st15" d="M266.2,182.6v5.7h-1.8v-5.5c0-0.8-0.2-1.4-0.5-1.7c-0.3-0.4-0.8-0.5-1.5-0.5c-0.8,0-1.4,0.2-1.8,0.7
		c-0.5,0.5-0.7,1.1-0.7,1.9v5.2h-1.8v-6.5c0-0.9,0-1.8-0.1-2.6h1.7l0.2,1.6c0.3-0.6,0.7-1,1.3-1.3c0.5-0.3,1.2-0.5,1.9-0.5
		C265.2,178.9,266.2,180.1,266.2,182.6z"/>
	<path class="st15" d="M277.1,175v13.2h-1.8v-1.5c-0.3,0.5-0.7,1-1.2,1.2s-1.1,0.4-1.8,0.4c-0.8,0-1.5-0.2-2.1-0.6
		c-0.6-0.4-1.1-1-1.4-1.7s-0.5-1.5-0.5-2.5c0-0.9,0.2-1.8,0.5-2.5s0.8-1.3,1.4-1.6s1.3-0.6,2.1-0.6c0.7,0,1.3,0.1,1.8,0.4
		c0.5,0.3,0.9,0.7,1.2,1.2V175H277.1z M274.7,186.1c0.5-0.6,0.7-1.4,0.7-2.4s-0.2-1.8-0.7-2.4c-0.4-0.6-1.1-0.9-1.9-0.9
		s-1.5,0.3-1.9,0.8c-0.5,0.6-0.7,1.4-0.7,2.4s0.2,1.8,0.7,2.4s1.1,0.9,1.9,0.9C273.6,186.9,274.2,186.6,274.7,186.1z"/>
	<path class="st15" d="M285.2,179.1v1.7c-0.3-0.1-0.7-0.2-1.1-0.2c-0.8,0-1.4,0.2-1.9,0.7c-0.4,0.5-0.6,1.1-0.6,1.9v5.1h-1.8v-6.5
		c0-0.9,0-1.8-0.1-2.6h1.7l0.2,1.6c0.2-0.6,0.6-1.1,1.1-1.4c0.5-0.3,1.1-0.5,1.7-0.5C284.6,178.9,284.9,179,285.2,179.1z"/>
	<path class="st15" d="M287.9,187.8c-0.7-0.4-1.2-0.9-1.6-1.6s-0.5-1.5-0.5-2.5c0-0.9,0.2-1.8,0.5-2.5c0.4-0.7,0.9-1.3,1.6-1.6
		c0.7-0.4,1.5-0.6,2.3-0.6c0.9,0,1.6,0.2,2.3,0.6c0.7,0.4,1.2,0.9,1.6,1.6c0.4,0.7,0.5,1.5,0.5,2.5c0,0.9-0.2,1.8-0.5,2.5
		c-0.4,0.7-0.9,1.3-1.6,1.6c-0.7,0.4-1.4,0.6-2.3,0.6C289.4,188.4,288.6,188.2,287.9,187.8z M292.2,186.1c0.4-0.6,0.7-1.4,0.7-2.4
		s-0.2-1.8-0.7-2.4c-0.5-0.6-1.1-0.8-1.9-0.8s-1.5,0.3-1.9,0.8c-0.5,0.6-0.7,1.4-0.7,2.4c0,1.1,0.2,1.9,0.7,2.4
		c0.4,0.6,1.1,0.8,1.9,0.8C291.1,186.9,291.8,186.6,292.2,186.1z"/>
</g>
<g id="JRM1X4.tif">
</g>
<g id="ew0VtL.tif">
</g>
<g id="ugYM9B.tif">
</g>
</svg>
